<?xml version="1.0" encoding="utf-8"?>
<!-- Generator: Adobe Illustrator 28.4.1, SVG Export Plug-In . SVG Version: 6.00 Build 0)  -->
<svg version="1.0" id="katman_1" xmlns="http://www.w3.org/2000/svg" xmlns:xlink="http://www.w3.org/1999/xlink" x="0px" y="0px"
	 viewBox="0 0 560 400" style="enable-background:new 0 0 560 400;" xml:space="preserve">
<style type="text/css">
	.st0{fill:#FFC72C;}
	.st1{fill:#0C2340;}
</style>
<g transform="matrix(.863386 0 0 .863386 179.193 92.9325)">
	<path class="st0" d="M34.8,0v25.3H48v47.3c-4.9,1.8-9.3,3.7-13.6,5.9c-21.2,11-33.4,26.9-33.4,43.8S13.1,155,34.4,166
		c4.2,2.2,8.7,4.2,13.6,5.9v18.7c0,33.9,26.5,57.5,64.5,57.5h10.3c38,0,64.5-23.7,64.5-57.5v-14.6c17.3-3.9,31.9-9.3,44-16.4
		L214,136.2c-0.2,0.1-0.3,0.2-0.5,0.3c-6.2,3.3-14.7,6.7-26.2,9.7V98.3c11.5,3,20,6.4,26.2,9.7c0.6,0.3,1.1,0.6,1.7,0.9l17.4-23.2
		c-12.3-7.4-27.5-13.1-45.2-17.1V25.3h13.2V0h-55.3v25.3h13.2v38.8c-8.4-0.9-17.3-1.5-26.5-1.8v-5.8h13.3V31.4H90v25.2h13.3v5.8
		c-9.3,0.5-18.2,1.4-26.5,2.8V25.3H90V0L34.8,0L34.8,0z M132,91.1c9.7,0.4,18.6,1.1,26.5,2v58.3c-7.9,1-16.8,1.7-26.5,2V91.1z
		 M103.3,91.3v62c-10.1-0.6-18.9-1.8-26.5-3.3V94.4C84.4,93,93.1,91.8,103.3,91.3z M48,104.1v36.6c-0.1-0.2-0.2-0.3-0.4-0.3
		c-12.3-6.3-17.9-13.7-17.9-18.1c0-4.5,5.6-11.8,17.9-18.1C47.7,104.2,47.9,104.2,48,104.1z M76.7,179.3c8.3,1.4,17.2,2.4,26.5,2.8
		v5.9H90v25.3h55.3v-25.3H132v-5.7c9.3-0.3,18.2-0.9,26.5-1.8v10c0,13.9-9.4,28.8-35.7,28.8h-10.3c-26.3,0-35.7-14.9-35.7-28.8
		L76.7,179.3z"/>
	<path class="st1" d="M39.9,4.6v16.1h13.2v50.2c5.8-1.9,11.9-3.5,18.5-4.7V20.7h13.2V4.6L39.9,4.6L39.9,4.6z M150.4,4.6v16.1h13.3
		v43.9c6.4,0.8,12.6,1.8,18.5,3V20.7h13.2V4.6L150.4,4.6z M95.2,35.9V52h13.3v140.6H95.2v16.1h44.9v-16.1h-13.3V52h13.3V35.9
		L95.2,35.9z M132,67.5v18.5c41,1.4,66.5,8.8,82.2,16.7l11.2-15C202.9,75.5,171.6,68.8,132,67.5L132,67.5z M103.3,67.6
		C76.8,68.9,54,74.2,36.8,83.1c-19.5,10-30.8,24.3-30.8,39.1c0,14.8,11.2,29.1,30.7,39.1c17.2,8.8,40,14.2,66.5,15.6v-18.5h0.1
		c-53.6-3-78.7-22.6-78.7-36.2c0-13.6,25.1-33.1,78.7-36.2V67.6L103.3,67.6z M163.7,93.7v57c6.8-1,12.9-2.1,18.5-3.4V97
		C176.6,95.7,170.6,94.6,163.7,93.7z M71.6,95.6c-7.4,1.8-13.5,3.9-18.5,6V143c4.9,2.1,11,4.2,18.5,6V95.6z M213,142.5
		c-15.9,7.7-41.2,14.8-81.1,16.2v18.5c38.9-1.3,69.8-7.8,92.3-19.5L213,142.5L213,142.5z M53.2,173.7v16.9
		c0,30.9,24.4,52.4,59.3,52.4h10.3c34.9,0,59.3-21.5,59.3-52.4V177c-6,1.1-12,2.1-18.5,2.9v10.6c0,25-22,33.9-40.9,33.9h-10.3
		c-30.2,0-40.9-18.3-40.9-33.9v-12.1C65.1,177.1,59,175.5,53.2,173.7L53.2,173.7z"/>
</g>
</svg>
